<svg width="67.6666355083488" height="21.669937848786134" viewBox="16.249364491651193,78.33006215121387,67.6666355083488,21.669937848786134"><desc>Created with Snap</desc><defs></defs><g></g><g></g><g></g><g></g><g><path d="M21.416,95c2.5-3.75,1.25-6.426,0-8.926c-1.382-2.766,6.25,1.426,7.5,5.176c0,0,2.5-0.176,1.25-7.676  C29.875,81.831,36.416,90,36.416,90s3.75-4.443,3.75-2.676c0,3.75,2.5,3.926,2.5,3.926s7.5-8.193,7.5-6.426  c0,3.75,1.25,3.926,3.75,6.426c0,0,3.75,1.074,3.75-6.426c0,0,2.5-2.324,6.25,3.926c0,0,3.75-2.676,6.25-3.926c0,0,0,2.676,0,5.176  c0,0,2.5-1.426,6.25-2.676c0,0,0,6.426,2.5,7.676" fill="url('#linearGradientSk8n0xj5c3d')" stroke="none" style=""></path></g></svg>