<?xml version="1.0" encoding="UTF-8" standalone="no"?>
<svg
   xmlns:dc="http://purl.org/dc/elements/1.1/"
   xmlns:cc="http://creativecommons.org/ns#"
   xmlns:rdf="http://www.w3.org/1999/02/22-rdf-syntax-ns#"
   xmlns:svg="http://www.w3.org/2000/svg"
   xmlns="http://www.w3.org/2000/svg"
   xmlns:sodipodi="http://sodipodi.sourceforge.net/DTD/sodipodi-0.dtd"
   xmlns:inkscape="http://www.inkscape.org/namespaces/inkscape"
   width="60"
   height="23"
   viewBox="16.249364 78.330062 60.000002 23.000001"
   version="1.1"
   id="svg18"
   sodipodi:docname="logo.svg"
   inkscape:version="0.92.4 (5da689c313, 2019-01-14)">
  <metadata
     id="metadata22">
    <rdf:RDF>
      <cc:Work
         rdf:about="">
        <dc:format>image/svg+xml</dc:format>
        <dc:type
           rdf:resource="http://purl.org/dc/dcmitype/StillImage" />
        <dc:title></dc:title>
      </cc:Work>
    </rdf:RDF>
  </metadata>
  <sodipodi:namedview
     pagecolor="#ffffff"
     bordercolor="#666666"
     borderopacity="1"
     objecttolerance="10"
     gridtolerance="10"
     guidetolerance="10"
     inkscape:pageopacity="0"
     inkscape:pageshadow="2"
     inkscape:window-width="1600"
     inkscape:window-height="837"
     id="namedview20"
     showgrid="false"
     inkscape:pagecheckerboard="false"
     inkscape:zoom="10.167493"
     inkscape:cx="32.478366"
     inkscape:cy="5.7112328"
     inkscape:window-x="-8"
     inkscape:window-y="-8"
     inkscape:window-maximized="1"
     inkscape:current-layer="svg18" />
  <desc
     id="desc2">Created with Snap</desc>
  <defs
     id="defs4" />
  <g
     id="g6"
     transform="translate(0,1.3300301)" />
  <g
     id="g8"
     transform="translate(0,1.3300301)" />
  <g
     id="g10"
     transform="translate(0,1.3300301)" />
  <g
     id="g12"
     transform="translate(0,1.3300301)" />
  <g
     id="g16"
     transform="translate(-3.5005004,-3.5699207)"
     style="fill:#ececec">
    <path
       d="m 21.416,95 c 2.5,-3.75 1.25,-6.426 0,-8.926 -1.382,-2.766 6.25,1.426 7.5,5.176 0,0 2.5,-0.176 1.25,-7.676 -0.291,-1.743 6.25,6.426 6.25,6.426 0,0 3.75,-4.443 3.75,-2.676 0,3.75 2.5,3.926 2.5,3.926 0,0 7.5,-8.193 7.5,-6.426 0,3.75 1.25,3.926 3.75,6.426 0,0 3.75,1.074 3.75,-6.426 0,0 2.5,-2.324 6.25,3.926 0,0 3.75,-2.676 6.25,-3.926 0,0 0,2.676 0,5.176 0,0 2.5,-1.426 6.25,-2.676 0,0 0,6.426 2.5,7.676"
       style="fill:#ececec;stroke:none"
       id="path14"
       inkscape:connector-curvature="0" />
  </g>
  <g
     aria-label="Agri Apps"
     transform="scale(1.1335867,0.88215573)"
     style="font-style:normal;font-variant:normal;font-weight:normal;font-stretch:normal;font-size:14.67240238px;line-height:1.25;font-family:Verdana;-inkscape-font-specification:Verdana;letter-spacing:0px;word-spacing:0px;fill:#cccccc;fill-opacity:1;stroke:none;stroke-width:0.84648472"
     id="text5085">
    <path
       d="m 18.08844,106.66522 -0.57755,1.69738 h 1.097785 z m -0.57755,4.57631 h -2.429235 v -1.46812 h 0.46733 l 1.15069,-3.19636 h -0.493782 v -1.46812 h 4.408775 v 1.46812 h -0.493783 l 1.172734,3.19636 h 0.449695 v 1.46812 h -3.200771 v -1.34467 h 0.537871 l -0.233665,-0.77154 h -1.569524 l -0.268935,0.77154 h 0.5026 z"
       style="font-style:normal;font-variant:normal;font-weight:normal;font-stretch:normal;font-size:9.02917099px;font-family:'Rockwell Extra Bold';-inkscape-font-specification:'Rockwell Extra Bold, ';fill:#cccccc;stroke-width:0.84648472"
       id="path5129" />
    <path
       d="m 24.472345,109.12973 q 0,0.39238 0.198395,0.6525 0.198395,0.26452 0.564323,0.26452 0.387973,0 0.57755,-0.26893 0.189577,-0.26012 0.189577,-0.65691 0,-0.43206 -0.202803,-0.70099 -0.207213,-0.27335 -0.555506,-0.27335 -0.374746,0 -0.573141,0.28657 -0.198395,0.28216 -0.198395,0.69659 z m -1.873729,3.69455 0.608411,-1.08456 q 0.515827,0.21603 1.384355,0.21603 0.573141,0 0.894982,-0.16312 0.326249,-0.15872 0.418833,-0.37475 0.08818,-0.21603 0.08818,-0.61282 -0.665725,0.33507 -1.485757,0.33507 -0.956705,0 -1.613612,-0.54669 -0.665725,-0.54228 -0.665725,-1.50339 0,-1.01402 0.692178,-1.6092 0.687768,-0.59519 1.666517,-0.59519 0.802397,0 1.406399,0.3527 v -0.27334 h 2.742258 v 1.34468 h -0.533462 v 2.34546 q 0,0.78477 -0.141081,1.20801 -0.145489,0.42324 -0.520235,0.72304 -0.374746,0.31302 -0.939069,0.44969 -0.559915,0.14549 -1.485757,0.14549 -0.414425,0 -0.740675,-0.0264 -0.32184,-0.0264 -0.740674,-0.0882 -0.714221,-0.11462 -1.036062,-0.24248 z"
       style="font-style:normal;font-variant:normal;font-weight:normal;font-stretch:normal;font-size:9.02917099px;font-family:'Rockwell Extra Bold';-inkscape-font-specification:'Rockwell Extra Bold, ';fill:#cccccc;stroke-width:0.84648472"
       id="path5131" />
    <path
       d="m 32.738798,111.24153 h -3.447662 v -1.34467 h 0.581959 v -1.58716 h -0.581959 v -1.34468 h 2.654083 v 1.07133 q 0.149898,-0.4012 0.462921,-0.69218 0.299797,-0.28657 0.608411,-0.37474 0.295388,-0.0838 0.868529,-0.0838 v 1.88255 q -0.07495,-0.004 -0.185169,-0.004 -0.678951,0 -1.009609,0.13667 -0.343884,0.14108 -0.46733,0.37034 -0.127855,0.23807 -0.132263,0.62605 h 0.648089 z"
       style="font-style:normal;font-variant:normal;font-weight:normal;font-stretch:normal;font-size:9.02917099px;font-family:'Rockwell Extra Bold';-inkscape-font-specification:'Rockwell Extra Bold, ';fill:#cccccc;stroke-width:0.84648472"
       id="path5133" />
    <path
       d="m 37.467209,111.24153 h -3.028828 v -1.34467 h 0.440877 v -1.58716 h -0.440877 v -1.34468 h 2.658491 v 2.93184 h 0.370337 z m -2.773119,-5.48451 q 0,-0.3483 0.35711,-0.55992 0.352702,-0.21162 0.872938,-0.21162 0.533461,0 0.859711,0.22044 0.32184,0.22485 0.32184,0.54669 0,0.34829 -0.335066,0.55109 -0.339476,0.20722 -0.855303,0.20722 -0.524644,0 -0.872937,-0.18958 -0.348293,-0.18517 -0.348293,-0.56432 z"
       style="font-style:normal;font-variant:normal;font-weight:normal;font-stretch:normal;font-size:9.02917099px;font-family:'Rockwell Extra Bold';-inkscape-font-specification:'Rockwell Extra Bold, ';fill:#cccccc;stroke-width:0.84648472"
       id="path5135" />
    <path
       d="m 43.147916,106.66522 -0.577549,1.69738 h 1.097785 z m -0.577549,4.57631 h -2.429235 v -1.46812 h 0.46733 l 1.15069,-3.19636 h -0.493783 v -1.46812 h 4.408775 v 1.46812 h -0.493782 l 1.172734,3.19636 h 0.449695 v 1.46812 H 43.60202 v -1.34467 h 0.537871 l -0.233665,-0.77154 h -1.569524 l -0.268935,0.77154 h 0.5026 z"
       style="font-style:normal;font-variant:normal;font-weight:normal;font-stretch:normal;font-size:9.02917099px;font-family:'Rockwell Extra Bold';-inkscape-font-specification:'Rockwell Extra Bold, ';fill:#cccccc;stroke-width:0.84648472"
       id="path5137" />
    <path
       d="m 49.950656,109.12091 q 0,0.46292 0.211622,0.69659 0.207212,0.23807 0.524644,0.23807 0.7539,0 0.7539,-0.96111 0,-0.93907 -0.723039,-0.93907 -0.330658,0 -0.546688,0.22926 -0.220439,0.23366 -0.220439,0.73626 z m -2.720214,-0.81121 v -1.34468 h 2.733441 v 0.28657 q 0.705404,-0.36593 1.450487,-0.36593 0.952295,0 1.635655,0.61723 0.678951,0.62164 0.678951,1.62684 0,1.01402 -0.665725,1.60038 -0.670133,0.59078 -1.741466,0.59078 -0.793579,0 -1.357902,-0.3527 v 0.89057 h 0.564323 v 1.34468 h -3.306581 v -1.34468 h 0.524644 v -3.54906 z"
       style="font-style:normal;font-variant:normal;font-weight:normal;font-stretch:normal;font-size:9.02917099px;font-family:'Rockwell Extra Bold';-inkscape-font-specification:'Rockwell Extra Bold, ';fill:#cccccc;stroke-width:0.84648472"
       id="path5139" />
    <path
       d="m 57.198682,109.12091 q 0,0.46292 0.211621,0.69659 0.207213,0.23807 0.524645,0.23807 0.7539,0 0.7539,-0.96111 0,-0.93907 -0.723039,-0.93907 -0.330658,0 -0.546688,0.22926 -0.220439,0.23366 -0.220439,0.73626 z m -2.720214,-0.81121 v -1.34468 h 2.733441 v 0.28657 q 0.705404,-0.36593 1.450486,-0.36593 0.952296,0 1.635656,0.61723 0.678951,0.62164 0.678951,1.62684 0,1.01402 -0.665725,1.60038 -0.670133,0.59078 -1.741466,0.59078 -0.793579,0 -1.357902,-0.3527 v 0.89057 h 0.564323 v 1.34468 h -3.306581 v -1.34468 h 0.524644 v -3.54906 z"
       style="font-style:normal;font-variant:normal;font-weight:normal;font-stretch:normal;font-size:9.02917099px;font-family:'Rockwell Extra Bold';-inkscape-font-specification:'Rockwell Extra Bold, ';fill:#cccccc;stroke-width:0.84648472"
       id="path5141" />
    <path
       d="m 63.300425,111.29444 h -1.371129 v -1.35791 h 1.282953 q 0.493783,0.52024 1.08015,0.52024 0.590776,0 0.590776,-0.24248 0,-0.12345 -0.127855,-0.18958 -0.132263,-0.0705 -0.700995,-0.20721 -0.458512,-0.12345 -1.014018,-0.28657 -0.480556,-0.13668 -0.758309,-0.34389 -0.286571,-0.20721 -0.383564,-0.40561 -0.10581,-0.19839 -0.10581,-0.52023 0,-0.70981 0.5026,-1.04488 0.498192,-0.33066 1.265318,-0.33066 0.79358,0 1.33145,0.2998 v -0.22044 h 1.353494 v 1.24327 h -1.252092 q -0.46733,-0.44528 -1.111011,-0.44528 -0.507009,0 -0.507009,0.26893 0,0.12786 0.149898,0.16754 0.127855,0.0397 0.846485,0.18957 0.815623,0.17195 1.274136,0.34389 0.454104,0.17194 0.68336,0.4541 0.224848,0.28216 0.224848,0.69218 0,0.74067 -0.551097,1.09338 -0.546688,0.34829 -1.349085,0.34829 -0.797989,0 -1.353494,-0.29098 z"
       style="font-style:normal;font-variant:normal;font-weight:normal;font-stretch:normal;font-size:9.02917099px;font-family:'Rockwell Extra Bold';-inkscape-font-specification:'Rockwell Extra Bold, ';fill:#cccccc;stroke-width:0.84648472"
       id="path5143" />
  </g>
</svg>
